<?xml version="1.0" encoding="utf-8" ?><svg xmlns="http://www.w3.org/2000/svg" xmlns:xlink="http://www.w3.org/1999/xlink" width="130" height="126" viewBox="0 0 130 126"><path fill="#FEFDFD" d="M14.6771 9.33413C15.7286 9.09 26.6642 9.26491 28.5752 9.26768L64.9338 9.18958C64.5685 12.3175 64.6824 18.8412 64.8905 22.008C61.0733 21.616 54.4192 21.7841 50.4455 21.7839L27.8049 21.8186C23.604 21.8477 19.6401 22.039 15.4142 21.9389C15.6547 28.3911 15.5103 35.5846 15.5085 42.0858L15.5028 77.2535L15.5217 96.5929C15.5245 99.5801 15.692 105.007 15.2758 107.716C17.43 107.581 20.8161 107.744 23.1033 107.754L38.875 107.787C47.4646 107.749 56.0544 107.754 64.644 107.804C64.7196 111.893 64.8303 116.275 64.6976 120.339C62.0391 120.578 57.9092 120.44 55.1031 120.433L38.9046 120.43L24.5706 120.439C15.595 120.468 4.0842 121.374 3.07122 108.552C2.7784 104.846 2.9645 100.993 2.96212 97.2591L2.95328 73.0987L2.95689 39.0136C2.95913 33.0823 2.88835 27.1721 3.0792 21.2422C3.31676 13.8608 7.77784 10.4254 14.6771 9.33413Z"/><path fill="#FEFDFD" d="M95.1258 34.1366C96.519 34.2147 122.09 61.2729 126.443 64.6406C122.549 68.9968 115.858 75.1175 111.695 79.4663C109.503 81.756 97.2905 94.158 95.415 95.205C93.8884 94.7016 88.0819 88.3158 86.6742 86.7431C90.9612 82.1664 97.7344 75.1748 102.374 71.0914C99.7282 71.0817 97.0827 71.0551 94.4375 71.0115L39.9409 71.0162C39.8578 67.6418 39.5583 61.6838 40.2279 58.5042C41.871 58.6446 44.907 58.5386 46.666 58.5385L59.43 58.5436L102.43 58.5463C98.5807 54.493 89.7879 46.5813 86.79 42.6025C89.4994 39.6824 92.443 37.0226 95.1258 34.1366Z"/></svg>